<svg width="186" height="186" viewBox="0 0 186 186" fill="none" xmlns="http://www.w3.org/2000/svg">
<path d="M131.406 0.446799C112.704 3.79861 97.3369 18.4795 93.4781 36.6802C92.6479 40.594 92.3755 48.0496 92.3656 67.1454L92.3527 92.4284L67.051 92.4413C38.4248 92.4565 34.9008 92.8869 25.5312 97.5131C14.7401 102.841 5.89253 113.094 2.03298 124.745C0.35128 129.821 0.0149414 132.214 0.000483264 139.193C-0.0139748 146.276 0.28812 148.431 1.97135 153.26C4.64457 160.931 7.29344 165.459 12.21 170.766C17.6127 176.597 23.4622 180.394 31.443 183.25L37.9446 185.576L111.972 185.788L186 186L185.773 112.03C185.561 42.7124 185.459 37.7973 184.153 33.8782C178.832 17.9107 166.958 6.09879 151.731 1.62617C146.518 0.0954966 136.584 -0.48088 131.406 0.446799Z" fill="#D43030"/>
</svg>
