<svg width="24" height="24" viewBox="0 0 24 24" fill="none" xmlns="http://www.w3.org/2000/svg">
<path fill-rule="evenodd" clip-rule="evenodd" d="M11.9998 13.9998C14.2089 13.9998 15.9998 12.2089 15.9998 9.99979C15.9998 7.79065 14.2089 5.99979 11.9998 5.99979C9.79062 5.99979 7.99976 7.79065 7.99976 9.99979C7.99976 12.2089 9.79062 13.9998 11.9998 13.9998ZM11.0623 8.43729C11.0623 8.14607 11.0623 8.00047 11.1098 7.88561C11.1733 7.73247 11.2949 7.6108 11.4481 7.54736C11.5629 7.49979 11.7085 7.49979 11.9998 7.49979C12.291 7.49979 12.4366 7.49979 12.5514 7.54736C12.7046 7.6108 12.8262 7.73247 12.8897 7.88561C12.9373 8.00047 12.9373 8.14607 12.9373 8.43729V9.03229C12.9373 9.04643 12.9373 9.0535 12.9416 9.05789C12.946 9.06229 12.9531 9.06229 12.9673 9.06229H13.5623C13.8535 9.06229 13.9991 9.06229 14.1139 9.10986C14.2671 9.1733 14.3887 9.29497 14.4522 9.44811C14.4998 9.56297 14.4998 9.70857 14.4998 9.99979C14.4998 10.291 14.4998 10.4366 14.4522 10.5515C14.3887 10.7046 14.2671 10.8263 14.1139 10.8897C13.9991 10.9373 13.8535 10.9373 13.5623 10.9373H12.9673C12.9531 10.9373 12.946 10.9373 12.9416 10.9417C12.9373 10.9461 12.9373 10.9531 12.9373 10.9673V11.5623C12.9373 11.8535 12.9373 11.9991 12.8897 12.114C12.8262 12.2671 12.7046 12.3888 12.5514 12.4522C12.4366 12.4998 12.291 12.4998 11.9998 12.4998C11.7085 12.4998 11.5629 12.4998 11.4481 12.4522C11.2949 12.3888 11.1733 12.2671 11.1098 12.114C11.0623 11.9991 11.0623 11.8535 11.0623 11.5623V10.9673C11.0623 10.9531 11.0623 10.9461 11.0579 10.9417C11.0535 10.9373 11.0464 10.9373 11.0323 10.9373H10.4373C10.146 10.9373 10.0004 10.9373 9.88558 10.8897C9.73244 10.8263 9.61076 10.7046 9.54733 10.5515C9.49976 10.4366 9.49976 10.291 9.49976 9.99979C9.49976 9.70857 9.49976 9.56297 9.54733 9.44811C9.61076 9.29497 9.73244 9.1733 9.88558 9.10986C10.0004 9.06229 10.146 9.06229 10.4373 9.06229H11.0323C11.0464 9.06229 11.0535 9.06229 11.0579 9.05789C11.0623 9.0535 11.0623 9.04643 11.0623 9.03229V8.43729Z" fill="white"/>
<path fill-rule="evenodd" clip-rule="evenodd" d="M4.01294 8.38567C5.96098 0.0765333 18.0477 0.0737262 19.9867 8.38621C20.2684 9.59356 20.0892 11.0463 19.6569 12.5062C19.2216 13.9762 18.5145 15.5041 17.6835 16.8869C16.8531 18.2686 15.8877 19.5242 14.9247 20.4416C14.4432 20.9003 13.9525 21.2839 13.47 21.5552C12.9911 21.8245 12.4909 21.9998 11.9997 21.9998C11.5086 21.9998 11.0084 21.8246 10.5295 21.5554C10.047 21.2842 9.55628 20.9008 9.07475 20.4422C8.11169 19.5251 7.14613 18.2698 6.31571 16.8883C5.48462 15.5057 4.77752 13.9779 4.34225 12.5078C3.90993 11.0475 3.73106 9.59388 4.01294 8.38567ZM11.9998 14.9998C14.7612 14.9998 16.9998 12.7612 16.9998 9.99979C16.9998 7.23836 14.7612 4.99979 11.9998 4.99979C9.23833 4.99979 6.99976 7.23836 6.99976 9.99979C6.99976 12.7612 9.23833 14.9998 11.9998 14.9998Z" fill="white"/>
</svg>
