<svg width="16" height="12" viewBox="0 0 16 12" fill="none" xmlns="http://www.w3.org/2000/svg">
<g clip-path="url(#clip0_633_6453)">
<rect width="16" height="12" fill="white"/>
<path fill-rule="evenodd" clip-rule="evenodd" d="M0 0V12H16V0H0Z" fill="#2E42A5"/>
<mask id="mask0_633_6453" style="mask-type:luminance" maskUnits="userSpaceOnUse" x="0" y="0" width="16" height="12">
<path fill-rule="evenodd" clip-rule="evenodd" d="M0 0V12H16V0H0Z" fill="white"/>
</mask>
<g mask="url(#mask0_633_6453)">
<path d="M-1.78223 11.1428L1.73862 12.6318L16.0792 1.61903L17.9364 -0.593715L14.1714 -1.09139L8.32217 3.65434L3.61417 6.85186L-1.78223 11.1428Z" fill="white"/>
<path d="M-1.2998 12.1862L0.493903 13.0503L17.2699 -0.799177H14.7513L-1.2998 12.1862Z" fill="#F50100"/>
<path d="M17.7812 11.1428L14.2604 12.6318L-0.0802135 1.61903L-1.93738 -0.593715L1.82766 -1.09139L7.67685 3.65434L12.3849 6.85186L17.7812 11.1428Z" fill="white"/>
<path d="M17.6611 11.8918L15.8674 12.7559L8.72402 6.82618L6.60616 6.16367L-2.11606 -0.585926H0.402514L9.11983 6.00347L11.4353 6.79788L17.6611 11.8918Z" fill="#F50100"/>
<mask id="path-7-inside-1_633_6453" fill="white">
<path d="M9.88867 4H17.0137V8H9.88867V13H6.11133V8H-0.986328V4H6.11133V-1H9.88867V4Z"/>
</mask>
<path d="M9.88867 4H17.0137V8H9.88867V13H6.11133V8H-0.986328V4H6.11133V-1H9.88867V4Z" fill="#F50100"/>
<path d="M9.88867 4H8.88867V5H9.88867V4ZM17.0137 4H18.0137V3H17.0137V4ZM17.0137 8V9H18.0137V8H17.0137ZM9.88867 8V7H8.88867V8H9.88867ZM9.88867 13V14H10.8887V13H9.88867ZM6.11133 13H5.11133V14H6.11133V13ZM6.11133 8H7.11133V7H6.11133V8ZM-0.986328 8H-1.98633V9H-0.986328V8ZM-0.986328 4V3H-1.98633V4H-0.986328ZM6.11133 4V5H7.11133V4H6.11133ZM6.11133 -1V-2H5.11133V-1H6.11133ZM9.88867 -1H10.8887V-2H9.88867V-1ZM9.88867 4V5H17.0137V4V3H9.88867V4ZM17.0137 4H16.0137V8H17.0137H18.0137V4H17.0137ZM17.0137 8V7H9.88867V8V9H17.0137V8ZM9.88867 8H8.88867V13H9.88867H10.8887V8H9.88867ZM9.88867 13V12H6.11133V13V14H9.88867V13ZM6.11133 13H7.11133V8H6.11133H5.11133V13H6.11133ZM6.11133 8V7H-0.986328V8V9H6.11133V8ZM-0.986328 8H0.0136719V4H-0.986328H-1.98633V8H-0.986328ZM-0.986328 4V5H6.11133V4V3H-0.986328V4ZM6.11133 4H7.11133V-1H6.11133H5.11133V4H6.11133ZM6.11133 -1V0H9.88867V-1V-2H6.11133V-1ZM9.88867 -1H8.88867V4H9.88867H10.8887V-1H9.88867Z" fill="white" mask="url(#path-7-inside-1_633_6453)"/>
</g>
</g>
<defs>
<clipPath id="clip0_633_6453">
<rect width="16" height="12" fill="white"/>
</clipPath>
</defs>
</svg>
