<svg width="16" height="12" viewBox="0 0 16 12" fill="none" xmlns="http://www.w3.org/2000/svg">
<g clip-path="url(#clip0_252_5405)">
<rect width="16" height="12" fill="white"/>
<path fill-rule="evenodd" clip-rule="evenodd" d="M0 0V12H16V0H0Z" fill="#F7FCFF"/>
<mask id="mask0_252_5405" style="mask-type:luminance" maskUnits="userSpaceOnUse" x="0" y="0" width="16" height="12">
<path fill-rule="evenodd" clip-rule="evenodd" d="M0 0V12H16V0H0Z" fill="white"/>
</mask>
<g mask="url(#mask0_252_5405)">
<path fill-rule="evenodd" clip-rule="evenodd" d="M7.89263 9.28567C9.60075 9.28567 10.9855 7.86764 10.9855 6.11842C10.9855 4.3692 9.60075 2.95117 7.89263 2.95117C6.18451 2.95117 4.7998 4.3692 4.7998 6.11842C4.7998 7.86764 6.18451 9.28567 7.89263 9.28567Z" fill="#3D58DB"/>
<mask id="mask1_252_5405" style="mask-type:luminance" maskUnits="userSpaceOnUse" x="4" y="2" width="7" height="8">
<path fill-rule="evenodd" clip-rule="evenodd" d="M7.89263 9.28567C9.60075 9.28567 10.9855 7.86764 10.9855 6.11842C10.9855 4.3692 9.60075 2.95117 7.89263 2.95117C6.18451 2.95117 4.7998 4.3692 4.7998 6.11842C4.7998 7.86764 6.18451 9.28567 7.89263 9.28567Z" fill="white"/>
</mask>
<g mask="url(#mask1_252_5405)">
<path fill-rule="evenodd" clip-rule="evenodd" d="M11.0932 6.36126C11.0932 6.36126 10.9196 4.8678 9.63392 4.78673C8.34823 4.70566 8.00157 5.88195 7.92737 6.19359C7.85318 6.50523 7.6654 7.33657 6.31172 7.33657C4.95804 7.33657 4.83594 5.22264 4.83594 5.22264V2.72998H11.0932V6.36126Z" fill="#E31D1C"/>
</g>
<path fill-rule="evenodd" clip-rule="evenodd" d="M3.64942 1.02588L4.10691 1.43964L1.98678 3.91559L1.5293 3.50183L3.64942 1.02588ZM4.40392 1.69546L4.8614 2.10922L2.81727 4.5493L2.35979 4.13554L4.40392 1.69546ZM5.61244 2.78705L5.15496 2.37329L3.10515 4.83189L3.56263 5.24565L5.61244 2.78705Z" fill="#272727"/>
<path d="M4.10691 1.43964L4.16387 1.48842L4.21135 1.43298L4.15721 1.38402L4.10691 1.43964ZM3.64942 1.02588L3.69973 0.970255L3.64258 0.918563L3.59246 0.977098L3.64942 1.02588ZM1.98678 3.91559L1.93647 3.97122L1.99362 4.02291L2.04375 3.96438L1.98678 3.91559ZM1.5293 3.50183L1.47233 3.45305L1.42485 3.50849L1.47899 3.55746L1.5293 3.50183ZM4.8614 2.10922L4.91889 2.15738L4.96526 2.10203L4.91171 2.0536L4.8614 2.10922ZM4.40392 1.69546L4.45423 1.63983L4.39645 1.58758L4.34643 1.64729L4.40392 1.69546ZM2.81727 4.5493L2.76696 4.60493L2.82474 4.65718L2.87476 4.59747L2.81727 4.5493ZM2.35979 4.13554L2.3023 4.08738L2.25593 4.14273L2.30948 4.19117L2.35979 4.13554ZM5.15496 2.37329L5.20527 2.31766L5.14736 2.26528L5.09735 2.32526L5.15496 2.37329ZM5.61244 2.78705L5.67005 2.83508L5.71618 2.77975L5.66275 2.73143L5.61244 2.78705ZM3.10515 4.83189L3.04754 4.78386L3.00141 4.83919L3.05484 4.88751L3.10515 4.83189ZM3.56263 5.24565L3.51232 5.30127L3.57023 5.35365L3.62023 5.29368L3.56263 5.24565ZM4.10691 1.43964L4.15721 1.38402L3.69973 0.970255L3.64942 1.02588L3.59912 1.0815L4.0566 1.49527L4.10691 1.43964ZM1.98678 3.91559L2.04375 3.96438L4.16387 1.48842L4.10691 1.43964L4.04994 1.39086L1.92981 3.86681L1.98678 3.91559ZM1.5293 3.50183L1.47899 3.55746L1.93647 3.97122L1.98678 3.91559L2.03709 3.85997L1.57961 3.44621L1.5293 3.50183ZM3.64942 1.02588L3.59246 0.977098L1.47233 3.45305L1.5293 3.50183L1.58627 3.55061L3.70639 1.07466L3.64942 1.02588ZM4.8614 2.10922L4.91171 2.0536L4.45423 1.63983L4.40392 1.69546L4.35361 1.75108L4.81109 2.16484L4.8614 2.10922ZM2.81727 4.5493L2.87476 4.59747L4.91889 2.15738L4.8614 2.10922L4.80391 2.06106L2.75978 4.50114L2.81727 4.5493ZM2.35979 4.13554L2.30948 4.19117L2.76696 4.60493L2.81727 4.5493L2.86758 4.49368L2.4101 4.07992L2.35979 4.13554ZM4.40392 1.69546L4.34643 1.64729L2.3023 4.08738L2.35979 4.13554L2.41728 4.1837L4.46141 1.74362L4.40392 1.69546ZM5.15496 2.37329L5.10465 2.42891L5.56213 2.84267L5.61244 2.78705L5.66275 2.73143L5.20527 2.31766L5.15496 2.37329ZM3.10515 4.83189L3.16275 4.87991L5.21256 2.42131L5.15496 2.37329L5.09735 2.32526L3.04754 4.78386L3.10515 4.83189ZM3.56263 5.24565L3.61294 5.19003L3.15546 4.77626L3.10515 4.83189L3.05484 4.88751L3.51232 5.30127L3.56263 5.24565ZM5.61244 2.78705L5.55484 2.73902L3.50502 5.19762L3.56263 5.24565L3.62023 5.29368L5.67005 2.83508L5.61244 2.78705Z" fill="#272727"/>
<path fill-rule="evenodd" clip-rule="evenodd" d="M12.292 1.02588L11.8345 1.43964L13.9546 3.91559L14.4121 3.50183L12.292 1.02588ZM11.5375 1.69546L11.08 2.10922L13.1241 4.5493L13.5816 4.13554L11.5375 1.69546ZM10.329 2.78705L10.7864 2.37329L12.8363 4.83189L12.3788 5.24565L10.329 2.78705Z" fill="#272727"/>
<path d="M11.8345 1.43964L11.7775 1.48842L11.7301 1.43298L11.7842 1.38402L11.8345 1.43964ZM12.292 1.02588L12.2417 0.970255L12.2988 0.918563L12.3489 0.977098L12.292 1.02588ZM13.9546 3.91559L14.0049 3.97122L13.9478 4.02291L13.8977 3.96438L13.9546 3.91559ZM14.4121 3.50183L14.4691 3.45305L14.5166 3.50849L14.4624 3.55746L14.4121 3.50183ZM11.08 2.10922L11.0225 2.15738L10.9761 2.10203L11.0297 2.0536L11.08 2.10922ZM11.5375 1.69546L11.4872 1.63983L11.545 1.58758L11.595 1.64729L11.5375 1.69546ZM13.1241 4.5493L13.1744 4.60493L13.1167 4.65718L13.0666 4.59747L13.1241 4.5493ZM13.5816 4.13554L13.6391 4.08738L13.6855 4.14273L13.6319 4.19117L13.5816 4.13554ZM10.7864 2.37329L10.7361 2.31766L10.794 2.26528L10.8441 2.32526L10.7864 2.37329ZM10.329 2.78705L10.2714 2.83508L10.2252 2.77975L10.2787 2.73143L10.329 2.78705ZM12.8363 4.83189L12.8939 4.78386L12.94 4.83919L12.8866 4.88751L12.8363 4.83189ZM12.3788 5.24565L12.4291 5.30127L12.3712 5.35365L12.3212 5.29368L12.3788 5.24565ZM11.8345 1.43964L11.7842 1.38402L12.2417 0.970255L12.292 1.02588L12.3423 1.0815L11.8848 1.49527L11.8345 1.43964ZM13.9546 3.91559L13.8977 3.96438L11.7775 1.48842L11.8345 1.43964L11.8915 1.39086L14.0116 3.86681L13.9546 3.91559ZM14.4121 3.50183L14.4624 3.55746L14.0049 3.97122L13.9546 3.91559L13.9043 3.85997L14.3618 3.44621L14.4121 3.50183ZM12.292 1.02588L12.3489 0.977098L14.4691 3.45305L14.4121 3.50183L14.3551 3.55061L12.235 1.07466L12.292 1.02588ZM11.08 2.10922L11.0297 2.0536L11.4872 1.63983L11.5375 1.69546L11.5878 1.75108L11.1303 2.16484L11.08 2.10922ZM13.1241 4.5493L13.0666 4.59747L11.0225 2.15738L11.08 2.10922L11.1375 2.06106L13.1816 4.50114L13.1241 4.5493ZM13.5816 4.13554L13.6319 4.19117L13.1744 4.60493L13.1241 4.5493L13.0738 4.49368L13.5313 4.07992L13.5816 4.13554ZM11.5375 1.69546L11.595 1.64729L13.6391 4.08738L13.5816 4.13554L13.5241 4.1837L11.48 1.74362L11.5375 1.69546ZM10.7864 2.37329L10.8368 2.42891L10.3793 2.84267L10.329 2.78705L10.2787 2.73143L10.7361 2.31766L10.7864 2.37329ZM12.8363 4.83189L12.7787 4.87991L10.7288 2.42131L10.7864 2.37329L10.8441 2.32526L12.8939 4.78386L12.8363 4.83189ZM12.3788 5.24565L12.3285 5.19003L12.7859 4.77626L12.8363 4.83189L12.8866 4.88751L12.4291 5.30127L12.3788 5.24565ZM10.329 2.78705L10.3866 2.73902L12.4364 5.19762L12.3788 5.24565L12.3212 5.29368L10.2714 2.83508L10.329 2.78705Z" fill="#272727"/>
<path fill-rule="evenodd" clip-rule="evenodd" d="M3.64942 11.2456L4.10691 10.8318L1.98678 8.35589L1.5293 8.76965L3.64942 11.2456ZM4.40392 10.576L4.8614 10.1623L2.81727 7.72218L2.35979 8.13594L4.40392 10.576ZM5.61244 9.48443L5.15496 9.8982L3.10515 7.4396L3.56263 7.02583L5.61244 9.48443Z" fill="#272727"/>
<path d="M4.10691 10.8318L4.16387 10.7831L4.21135 10.8385L4.15721 10.8875L4.10691 10.8318ZM3.64942 11.2456L3.69973 11.3012L3.64258 11.3529L3.59246 11.2944L3.64942 11.2456ZM1.98678 8.35589L1.93647 8.30027L1.99362 8.24857L2.04375 8.30711L1.98678 8.35589ZM1.5293 8.76965L1.47233 8.81843L1.42485 8.76299L1.47899 8.71403L1.5293 8.76965ZM4.8614 10.1623L4.91889 10.1141L4.96526 10.1695L4.91171 10.2179L4.8614 10.1623ZM4.40392 10.576L4.45423 10.6317L4.39645 10.6839L4.34643 10.6242L4.40392 10.576ZM2.81727 7.72218L2.76696 7.66656L2.82474 7.6143L2.87476 7.67402L2.81727 7.72218ZM2.35979 8.13594L2.3023 8.18411L2.25593 8.12875L2.30948 8.08032L2.35979 8.13594ZM5.15496 9.8982L5.20527 9.95382L5.14736 10.0062L5.09735 9.94623L5.15496 9.8982ZM5.61244 9.48443L5.67005 9.43641L5.71618 9.49174L5.66275 9.54006L5.61244 9.48443ZM3.10515 7.4396L3.04754 7.48762L3.00141 7.43229L3.05484 7.38397L3.10515 7.4396ZM3.56263 7.02583L3.51232 6.97021L3.57023 6.91783L3.62023 6.97781L3.56263 7.02583ZM4.10691 10.8318L4.15721 10.8875L3.69973 11.3012L3.64942 11.2456L3.59912 11.19L4.0566 10.7762L4.10691 10.8318ZM1.98678 8.35589L2.04375 8.30711L4.16387 10.7831L4.10691 10.8318L4.04994 10.8806L1.92981 8.40467L1.98678 8.35589ZM1.5293 8.76965L1.47899 8.71403L1.93647 8.30027L1.98678 8.35589L2.03709 8.41151L1.57961 8.82528L1.5293 8.76965ZM3.64942 11.2456L3.59246 11.2944L1.47233 8.81843L1.5293 8.76965L1.58627 8.72087L3.70639 11.1968L3.64942 11.2456ZM4.8614 10.1623L4.91171 10.2179L4.45423 10.6317L4.40392 10.576L4.35361 10.5204L4.81109 10.1066L4.8614 10.1623ZM2.81727 7.72218L2.87476 7.67402L4.91889 10.1141L4.8614 10.1623L4.80391 10.2104L2.75978 7.77034L2.81727 7.72218ZM2.35979 8.13594L2.30948 8.08032L2.76696 7.66656L2.81727 7.72218L2.86758 7.7778L2.4101 8.19157L2.35979 8.13594ZM4.40392 10.576L4.34643 10.6242L2.3023 8.18411L2.35979 8.13594L2.41728 8.08778L4.46141 10.5279L4.40392 10.576ZM5.15496 9.8982L5.10465 9.84257L5.56213 9.42881L5.61244 9.48443L5.66275 9.54006L5.20527 9.95382L5.15496 9.8982ZM3.10515 7.4396L3.16275 7.39157L5.21256 9.85017L5.15496 9.8982L5.09735 9.94623L3.04754 7.48762L3.10515 7.4396ZM3.56263 7.02583L3.61294 7.08146L3.15546 7.49522L3.10515 7.4396L3.05484 7.38397L3.51232 6.97021L3.56263 7.02583ZM5.61244 9.48443L5.55484 9.53246L3.50502 7.07386L3.56263 7.02583L3.62023 6.97781L5.67005 9.43641L5.61244 9.48443Z" fill="#272727"/>
<path fill-rule="evenodd" clip-rule="evenodd" d="M12.292 11.2456L11.8345 10.8318L13.9546 8.35589L14.4121 8.76965L12.292 11.2456ZM11.5375 10.576L11.08 10.1623L13.1241 7.72218L13.5816 8.13594L11.5375 10.576ZM10.329 9.48443L10.7864 9.8982L12.8363 7.4396L12.3788 7.02583L10.329 9.48443Z" fill="#272727"/>
<path d="M11.8345 10.8318L11.7775 10.7831L11.7301 10.8385L11.7842 10.8875L11.8345 10.8318ZM12.292 11.2456L12.2417 11.3012L12.2988 11.3529L12.3489 11.2944L12.292 11.2456ZM13.9546 8.35589L14.0049 8.30027L13.9478 8.24857L13.8977 8.30711L13.9546 8.35589ZM14.4121 8.76965L14.4691 8.81843L14.5166 8.76299L14.4624 8.71403L14.4121 8.76965ZM11.08 10.1623L11.0225 10.1141L10.9761 10.1695L11.0297 10.2179L11.08 10.1623ZM11.5375 10.576L11.4872 10.6317L11.545 10.6839L11.595 10.6242L11.5375 10.576ZM13.1241 7.72218L13.1744 7.66656L13.1167 7.6143L13.0666 7.67402L13.1241 7.72218ZM13.5816 8.13594L13.6391 8.18411L13.6855 8.12875L13.6319 8.08032L13.5816 8.13594ZM10.7864 9.8982L10.7361 9.95382L10.794 10.0062L10.8441 9.94623L10.7864 9.8982ZM10.329 9.48443L10.2714 9.43641L10.2252 9.49174L10.2787 9.54006L10.329 9.48443ZM12.8363 7.4396L12.8939 7.48762L12.94 7.43229L12.8866 7.38397L12.8363 7.4396ZM12.3788 7.02583L12.4291 6.97021L12.3712 6.91783L12.3212 6.97781L12.3788 7.02583ZM11.8345 10.8318L11.7842 10.8875L12.2417 11.3012L12.292 11.2456L12.3423 11.19L11.8848 10.7762L11.8345 10.8318ZM13.9546 8.35589L13.8977 8.30711L11.7775 10.7831L11.8345 10.8318L11.8915 10.8806L14.0116 8.40467L13.9546 8.35589ZM14.4121 8.76965L14.4624 8.71403L14.0049 8.30027L13.9546 8.35589L13.9043 8.41151L14.3618 8.82528L14.4121 8.76965ZM12.292 11.2456L12.3489 11.2944L14.4691 8.81843L14.4121 8.76965L14.3551 8.72087L12.235 11.1968L12.292 11.2456ZM11.08 10.1623L11.0297 10.2179L11.4872 10.6317L11.5375 10.576L11.5878 10.5204L11.1303 10.1066L11.08 10.1623ZM13.1241 7.72218L13.0666 7.67402L11.0225 10.1141L11.08 10.1623L11.1375 10.2104L13.1816 7.77034L13.1241 7.72218ZM13.5816 8.13594L13.6319 8.08032L13.1744 7.66656L13.1241 7.72218L13.0738 7.7778L13.5313 8.19157L13.5816 8.13594ZM11.5375 10.576L11.595 10.6242L13.6391 8.18411L13.5816 8.13594L13.5241 8.08778L11.48 10.5279L11.5375 10.576ZM10.7864 9.8982L10.8368 9.84257L10.3793 9.42881L10.329 9.48443L10.2787 9.54006L10.7361 9.95382L10.7864 9.8982ZM12.8363 7.4396L12.7787 7.39157L10.7288 9.85017L10.7864 9.8982L10.8441 9.94623L12.8939 7.48762L12.8363 7.4396ZM12.3788 7.02583L12.3285 7.08146L12.7859 7.49522L12.8363 7.4396L12.8866 7.38397L12.4291 6.97021L12.3788 7.02583ZM10.329 9.48443L10.3866 9.53246L12.4364 7.07386L12.3788 7.02583L12.3212 6.97781L10.2714 9.43641L10.329 9.48443Z" fill="#272727"/>
</g>
</g>
<defs>
<clipPath id="clip0_252_5405">
<rect width="16" height="12" fill="white"/>
</clipPath>
</defs>
</svg>
