<svg width="16" height="12" viewBox="0 0 16 12" fill="none" xmlns="http://www.w3.org/2000/svg">
<g clip-path="url(#clip0_252_5400)">
<rect width="16" height="12" fill="white"/>
<path fill-rule="evenodd" clip-rule="evenodd" d="M0 0V12H16V0H0Z" fill="#F7FCFF"/>
<mask id="mask0_252_5400" style="mask-type:luminance" maskUnits="userSpaceOnUse" x="0" y="0" width="16" height="12">
<path fill-rule="evenodd" clip-rule="evenodd" d="M0 0V12H16V0H0Z" fill="white"/>
</mask>
<g mask="url(#mask0_252_5400)">
<path fill-rule="evenodd" clip-rule="evenodd" d="M0 0V6H16V0H0Z" fill="#E31D1C"/>
<path d="M1.92578 3.18762C1.92578 1.07984 3.7479 0.923944 4.43457 1.09778C4.43457 1.09778 3.02148 1.64808 3.02148 3.18762C3.02176 4.72682 4.43457 5.29504 4.43457 5.29504C3.72042 5.69252 1.92603 5.29501 1.92578 3.18762ZM5.39551 4.18665H5.85156L5.51465 4.56262L5.61621 5.04016L5.20215 4.79602L4.79688 5.04016L4.88867 4.56262L4.55176 4.2052L5.00879 4.18665L5.20215 3.74036L5.39551 4.18665ZM6.86816 4.1593H7.32422L6.98828 4.53528L7.08887 5.01282L6.6748 4.76868L6.26953 5.01282L6.3623 4.53528L6.02441 4.17786L6.48145 4.1593L6.6748 3.71301L6.86816 4.1593ZM4.87891 3.00208H5.33496L4.99805 3.37903L5.09961 3.85657L4.68555 3.61145L4.28027 3.85657L4.37207 3.37903L4.03516 3.02161L4.49219 3.00208L4.68555 2.55579L4.87891 3.00208ZM7.55762 2.98059H8.01367L7.67773 3.35657L7.77832 3.83411L7.36426 3.58997L6.95898 3.83411L7.05176 3.35657L6.71387 2.99915L7.1709 2.98059L7.36426 2.5343L7.55762 2.98059ZM6.24219 2.03137H6.69922L6.3623 2.40735L6.46387 2.88489L6.04883 2.64075L5.64355 2.88489L5.73633 2.40735L5.39844 2.04993L5.85547 2.03137L6.04883 1.58508L6.24219 2.03137Z" fill="#F1F9FF"/>
</g>
</g>
<defs>
<clipPath id="clip0_252_5400">
<rect width="16" height="12" fill="white"/>
</clipPath>
</defs>
</svg>
