<svg width="16" height="12" viewBox="0 0 16 12" fill="none" xmlns="http://www.w3.org/2000/svg">
<g clip-path="url(#clip0_633_6492)">
<rect width="16" height="12" fill="white"/>
<path fill-rule="evenodd" clip-rule="evenodd" d="M0 0V12H16V0H0Z" fill="#EF0000"/>
<mask id="mask0_633_6492" style="mask-type:luminance" maskUnits="userSpaceOnUse" x="0" y="0" width="16" height="12">
<path fill-rule="evenodd" clip-rule="evenodd" d="M0 0V12H16V0H0Z" fill="white"/>
</mask>
<g mask="url(#mask0_633_6492)">
<path fill-rule="evenodd" clip-rule="evenodd" d="M0 0V7H9V0H0Z" fill="#2E42A5"/>
<path d="M5.28516 1.9707L6.38867 1.54102L5.95801 2.64453L7.12891 2.82422L6.20508 3.56445L7.12891 4.30566L5.95801 4.48535L6.38867 5.58887L5.28516 5.1582L5.10547 6.3291L4.36426 5.40527L3.62402 6.3291L3.44434 5.1582L2.34082 5.58887L2.77051 4.48535L1.59961 4.30566L2.52344 3.56445L1.59961 2.82422L2.77051 2.64453L2.34082 1.54102L3.44434 1.9707L3.62402 0.799805L4.36426 1.72363L5.10547 0.799805L5.28516 1.9707ZM4.36426 2.13379C3.57397 2.13388 2.93368 2.77417 2.93359 3.56445C2.93359 4.35481 3.57392 4.996 4.36426 4.99609C5.15467 4.99609 5.7959 4.35487 5.7959 3.56445C5.79581 2.77411 5.15462 2.13379 4.36426 2.13379ZM4.36426 2.41992C4.99653 2.41992 5.50968 2.9322 5.50977 3.56445C5.50977 4.19679 4.99659 4.70996 4.36426 4.70996C3.732 4.70987 3.21973 4.19673 3.21973 3.56445C3.21982 2.93225 3.73206 2.42001 4.36426 2.41992Z" fill="#FEFFFF"/>
</g>
</g>
<defs>
<clipPath id="clip0_633_6492">
<rect width="16" height="12" fill="white"/>
</clipPath>
</defs>
</svg>
