<svg width="120" height="120" viewBox="0 0 120 120" fill="none" xmlns="http://www.w3.org/2000/svg">
<path d="M84.7782 0.288257C72.7125 2.45071 62.798 11.9223 60.3085 23.6647C59.7728 26.1897 59.5971 30.9998 59.5907 43.3196L59.5824 59.6312L43.2587 59.6396C24.7902 59.6494 22.5166 59.927 16.4717 62.9117C9.50976 66.3492 3.80163 72.9641 1.3116 80.4807C0.226632 83.7553 0.00963958 85.2991 0.000311783 89.8016C-0.00901601 94.3713 0.185884 95.7616 1.27184 98.8773C2.9965 103.827 4.70545 106.748 7.87739 110.171C11.363 113.934 15.1369 116.383 20.2858 118.226L24.4804 119.727L72.2402 119.863L120 120L119.854 72.2773C119.717 27.5564 119.651 24.3853 118.808 21.8569C115.375 11.5553 107.715 3.93471 97.8912 1.04914C94.5277 0.0616107 88.1186 -0.310245 84.7782 0.288257Z" fill="#D43030"/>
</svg>
